<?xml version="1.0" standalone="no"?>
<!DOCTYPE svg PUBLIC "-//W3C//DTD SVG 20010904//EN"
 "http://www.w3.org/TR/2001/REC-SVG-20010904/DTD/svg10.dtd">
<svg version="1.0" xmlns="http://www.w3.org/2000/svg"
 width="192.000000pt" height="192.000000pt" viewBox="0 0 192.000000 192.000000"
 preserveAspectRatio="xMidYMid meet">

<g transform="translate(0.000000,192.000000) scale(0.100000,-0.100000)"
fill="#000000" stroke="none">
<path d="M0 960 l0 -960 960 0 960 0 0 960 0 960 -960 0 -960 0 0 -960z m1077
704 c36 -10 31 -53 -13 -95 -20 -18 -58 -62 -85 -95 l-50 -61 -42 8 c-23 4
-77 11 -119 14 l-78 7 0 59 c0 86 26 132 82 148 104 29 225 35 305 15z m271
-106 l42 -29 0 -165 c0 -164 0 -164 -24 -175 -22 -10 -32 -6 -98 48 -40 33
-106 80 -145 103 -71 42 -73 44 -73 82 0 37 7 47 85 124 l85 84 43 -21 c23
-12 61 -35 85 -51z m-748 -36 c-16 -38 -28 -52 -48 -57 -15 -4 -45 -26 -67
-49 -37 -39 -95 -68 -95 -48 0 18 60 91 109 133 50 44 111 82 119 75 2 -2 -6
-27 -18 -54z m956 -170 c21 -31 50 -92 66 -136 26 -77 28 -90 28 -254 0 -158
-2 -180 -24 -246 -14 -40 -35 -90 -48 -112 l-23 -39 -8 100 c-4 55 -18 141
-31 190 -23 85 -25 104 -23 332 2 267 0 261 63 165z m-962 62 c35 -13 7 -69
-31 -62 -22 4 -29 34 -13 53 14 17 21 18 44 9z m219 -60 c46 -8 49 -30 11
-112 -59 -128 -114 -329 -114 -418 0 -29 -3 -34 -24 -34 -20 0 -27 10 -50 71
-24 66 -26 81 -26 252 l0 181 33 32 c27 26 40 32 82 33 28 0 67 -2 88 -5z
m-311 -41 c13 -15 14 -30 5 -93 -13 -90 2 -241 33 -340 21 -68 26 -145 11
-169 -13 -20 -117 0 -198 39 l-64 30 3 212 c4 254 6 261 95 300 99 44 95 43
115 21z m553 -33 c44 -22 104 -60 133 -86 l52 -46 0 -108 0 -108 -58 -53 c-83
-77 -247 -159 -319 -159 l-24 0 3 193 3 192 37 84 c44 99 64 131 80 131 7 0
48 -18 93 -40z m353 -182 c18 -18 15 -83 -4 -99 -14 -11 -18 -10 -30 6 -24 33
-13 105 16 105 3 0 11 -5 18 -12z m14 -202 c4 -6 8 -113 8 -237 l0 -227 -40
-36 c-39 -35 -42 -36 -98 -30 -124 13 -263 62 -339 120 -31 23 -33 29 -33 85
0 48 3 61 18 66 55 19 188 86 240 122 33 22 86 67 118 99 49 51 60 58 88 54
17 -3 34 -10 38 -16z m-663 -211 c16 -22 18 -31 9 -56 -15 -43 -48 -62 -83
-49 -54 21 -63 54 -29 108 21 32 76 30 103 -3z m-251 -50 c33 -5 46 -13 57
-36 27 -51 96 -99 144 -99 12 0 22 -22 39 -82 12 -46 22 -96 22 -111 0 -27 -2
-28 -32 -22 -123 27 -288 156 -366 286 -21 34 -29 88 -16 102 3 3 29 -3 58
-13 29 -10 71 -21 94 -25z m550 -264 c48 -16 111 -32 140 -36 77 -10 69 -25
-32 -59 -65 -22 -180 -36 -233 -29 -39 5 -43 9 -62 56 -12 29 -21 72 -21 103
l0 54 61 -30 c33 -17 100 -44 147 -59z"/>
</g>
</svg>
